<svg xmlns="http://www.w3.org/2000/svg" width="38.513" height="21.435" viewBox="0 0 38.513 21.435"><defs><style>.a{fill:#ccc;opacity:0.5;}</style></defs><path class="a" d="M37.27,13.694a3.866,3.866,0,0,1-2.039,2.25,32.8,32.8,0,0,1-5.97,1.969,2.143,2.143,0,0,1-1.09.077,8.352,8.352,0,0,0-3.5.162,38.976,38.976,0,0,1-4.613.38c-.865.028-1.723.134-2.581.211-.556.056-1.1.141-1.66.176-1.73.1-3.446.281-5.155.534A11.133,11.133,0,0,1,8.451,19.4a10.193,10.193,0,0,0-1.28-.183,19,19,0,0,1-4.037-.464A3.867,3.867,0,0,1,.1,16.31a1.061,1.061,0,0,1-.007-.9,4.329,4.329,0,0,1,3.038-2.75,7.1,7.1,0,0,1,2.75-.274,8,8,0,0,0,1.477-.028c.352-.021.5-.253.429-.647-.049-.239-.12-.478-.162-.724A2.611,2.611,0,0,1,8.746,8.265a6.421,6.421,0,0,1,4.7-1.245c.619.056,1.224.162,1.842.239a7.992,7.992,0,0,0,.921.063c1.111.014,1.449,0,1.4-1.322a2.168,2.168,0,0,1,1.28-2.068,9.882,9.882,0,0,1,4.557-1.385c.246-.014.492-.063.738-.063A13.009,13.009,0,0,0,30.483.5a8.132,8.132,0,0,1,.992-.492c.077-.035.239.042.316.12s.169.239.134.316c-.155.331-.352.647-.52.977a8.156,8.156,0,0,0-.4.83,1.128,1.128,0,0,0,.3,1.357,6.684,6.684,0,0,0,1.2.844c1.814.97,2.208,1.955,1.526,3.945-.1.288-.267.563-.091.886a1.42,1.42,0,0,0,.851.281,3.334,3.334,0,0,1,1.639.823A2.576,2.576,0,0,1,37.27,13.694Z" transform="translate(1.021) rotate(3)"/></svg>