<svg xmlns="http://www.w3.org/2000/svg" width="42.668" height="20.42" viewBox="0 0 42.668 20.42"><defs><style>.a{fill:#ccc;opacity:0.5;}</style></defs><path class="a" d="M764.748,412.522a8.278,8.278,0,0,0-1.007-.175,8.965,8.965,0,0,0-1.759-.032,38.108,38.108,0,0,1-7.342.254,26.015,26.015,0,0,0-3.77.32c-.926.072-1.855.1-2.783.131-.677.024-1.356-.007-2.031.043a58.827,58.827,0,0,1-9.136-.051,31.263,31.263,0,0,1-5.757-.894,4.106,4.106,0,0,1-2.866-2.96,1.557,1.557,0,0,1,.4-1.646,7.725,7.725,0,0,1,2.493-1.721c.935-.395,1.888-.748,2.845-1.085a4.212,4.212,0,0,0,2.552-1.95,6.7,6.7,0,0,1,2.79-2.517,3.776,3.776,0,0,1,2.682-.5,18.161,18.161,0,0,0,2.512.271c1.27.052,1.428-.073,1.889-1.482a2.272,2.272,0,0,1,.86-1.21,7.67,7.67,0,0,1,5.2-1.677,17.3,17.3,0,0,1,2.516.267,6.271,6.271,0,0,0,5.678-1.444c.657-.531,1.3-1.082,1.965-1.6a.493.493,0,0,1,.469-.02.959.959,0,0,1,.38.579,3.767,3.767,0,0,1-.193,1.24,2.176,2.176,0,0,0,.993,2.626,12.437,12.437,0,0,0,1.558.848,2.911,2.911,0,0,1,1.642,3.149c-.031.251-.1.5-.143.747a1.25,1.25,0,0,0,.59,1.3c.412.294.857.543,1.281.82a3.645,3.645,0,0,1,.632,5.528,11.667,11.667,0,0,1-3.183,2.49A3.093,3.093,0,0,1,764.748,412.522Zm-3.3-17.151c-.978.5-1.895.935-2.769,1.439a4.018,4.018,0,0,1-3.173.444,14.8,14.8,0,0,0-4.286-.243,3.819,3.819,0,0,0-3.022,1.61.993.993,0,0,0-.126.7c.039.237.251.44.324.677a1,1,0,0,1-.928,1.424c-1.266-.055-2.53-.149-3.793-.24-.673-.049-1.344-.137-2.017-.187a4.083,4.083,0,0,0-2.179.576,2.161,2.161,0,0,0-1.076,2.55,1.931,1.931,0,0,1,.15.722.961.961,0,0,1-.435.563,1.582,1.582,0,0,1-.739.135c-2.235.025-4.263.973-6.4,1.433a2.016,2.016,0,0,0-.47.191,1.606,1.606,0,0,0-.74,1.74,2.354,2.354,0,0,0,1.821,1.9,23.523,23.523,0,0,0,2.5.375,1.452,1.452,0,0,1,1.268.674.759.759,0,0,0,.66.2,15.747,15.747,0,0,1,4.789-.208,39.772,39.772,0,0,0,6.318,0,9.182,9.182,0,0,1,2.024-.006,7.465,7.465,0,0,0,3.014-.183,7.892,7.892,0,0,1,2.766-.239,48.3,48.3,0,0,0,7.081-.233c1-.048,1.972-.469,2.986-.027a1.2,1.2,0,0,0,.743-.061,6.091,6.091,0,0,0,3.75-3.2,1.853,1.853,0,0,0-1.048-2.487c-1.177-.2-2.143-1-3.366-1.025-.382-.008-.578-.714-.324-1.034.419-.528.893-1.017,1.273-1.571a1.861,1.861,0,0,0-.373-2.5,5.2,5.2,0,0,0-.813-.6c-.666-.359-1.375-.643-2.026-1.025C762.009,397.191,762.328,396.051,761.443,395.37Z" transform="translate(-728.208 -392.796)"/></svg>