<svg xmlns="http://www.w3.org/2000/svg" width="35.527" height="17.002" viewBox="0 0 35.527 17.002"><defs><style>.a{fill:#fff;opacity:0.749;}</style></defs><path class="a" d="M740.911,324.859a9.549,9.549,0,0,1-2.653,2.076,2.629,2.629,0,0,1-1.627.289,6.443,6.443,0,0,0-.834-.152,8.159,8.159,0,0,0-1.467-.024,31.818,31.818,0,0,1-6.116.216,20.841,20.841,0,0,0-3.134.265c-.77.056-1.547.08-2.317.1-.569.024-1.13,0-1.691.04a49.185,49.185,0,0,1-7.607-.048,26.266,26.266,0,0,1-4.794-.737,3.427,3.427,0,0,1-2.389-2.469,1.3,1.3,0,0,1,.329-1.371,6.516,6.516,0,0,1,2.076-1.435c.778-.329,1.571-.617,2.373-.9a3.576,3.576,0,0,0,2.124-1.627A5.536,5.536,0,0,1,715.508,317a3.087,3.087,0,0,1,2.229-.417,16.689,16.689,0,0,0,2.092.224c1.058.04,1.186-.064,1.571-1.234a1.957,1.957,0,0,1,.713-1.01,6.425,6.425,0,0,1,4.337-1.395,15.048,15.048,0,0,1,2.092.224,5.233,5.233,0,0,0,4.729-1.2c.545-.441,1.082-.9,1.635-1.331a.4.4,0,0,1,.393-.016.771.771,0,0,1,.313.481,3.032,3.032,0,0,1-.16,1.034,1.814,1.814,0,0,0,.834,2.188,11.069,11.069,0,0,0,1.291.705,2.416,2.416,0,0,1,1.371,2.621c-.024.208-.08.409-.12.617a1.049,1.049,0,0,0,.489,1.09c.345.24.713.449,1.074.681A3.038,3.038,0,0,1,740.911,324.859Z" transform="translate(-706.207 -310.796)"/></svg>